<?xml version="1.0" encoding="UTF-8"?>
<!--
  eBay Official Logo
  Multi-colored letters with the eBay brand colors:
  Red "e", Blue "b", Yellow "a", Green "y"
  Optimized for icon usage but fully scalable.
-->
<svg xmlns="http://www.w3.org/2000/svg" viewBox="0 0 300 120">
  <!-- eBay Logo with official brand colors -->
  <g>
    <!-- "e" in red -->
    <path fill="#E53238" d="M38.7,68.1c-11.8,0-18.8-8.1-18.8-18.3c0-10.8,7.5-18.3,19.2-18.3c5.6,0,10.2,1.2,12.5,2.3v14.6
      c-3-2.1-6.7-3.3-11.2-3.3c-4.9,0-8.4,2.9-8.4,7.6c0,4.6,3.5,7.6,8.4,7.6c4.5,0,8.1-1.2,11.2-3.2v14.5
      C48.9,66.9,44.3,68.1,38.7,68.1z"/>
    
    <!-- "b" in blue -->
    <path fill="#0064D2" d="M75.1,67.8c-11.1,0-19.1-7.8-19.1-18.1c0-10.3,8.1-18.1,19.1-18.1c11.1,0,19.1,7.8,19.1,18.1
      C94.2,60,86.2,67.8,75.1,67.8z M75.1,43.6c-3.6,0-6.2,2.7-6.2,6.1c0,3.4,2.6,6.1,6.2,6.1c3.6,0,6.2-2.7,6.2-6.1
      C81.3,46.3,78.7,43.6,75.1,43.6z"/>
    
    <!-- "a" in yellow -->
    <path fill="#F5AF02" d="M119.3,32.5l-2.9,13.5c-2.3-1-5-1.5-7.3-1.5c-6.2,0-10.7,3.7-10.7,10.3c0,5.5,3.1,9.1,9.5,9.1
      c3.3,0,6.6-0.9,9.8-2.4l2.9,12.8c-4.3,1.7-9.1,2.6-14.2,2.6c-13.1,0-22.9-7.8-22.9-22.2c0-16.1,11.1-25.9,27.5-25.9
      C114.3,28.9,117.3,30.3,119.3,32.5z"/>
    
    <!-- "y" in green -->
    <path fill="#86B817" d="M133.1,67.5h-15.8l15.6-22.2l-14.9-21.3h17.9l6.8,11.3l6.8-11.3h17.9l-14.9,21.3l15.6,22.2h-15.8
      l-9.6-14.3L133.1,67.5z"/>
  </g>
</svg>
