<svg xmlns="http://www.w3.org/2000/svg" viewBox="0 0 20 20">
  <!-- eBay Logo with official brand colors -->
  <g transform="translate(1.5, 6)" fill-rule="evenodd">
    <!-- "e" in red -->
    <path fill="#E53238" d="M3.8,4.2c-0.7,0-1.3-0.2-1.7-0.5C1.7,3.3,1.5,2.9,1.5,2.4c0-0.5,0.2-1,0.6-1.3C2.5,0.7,3.1,0.5,3.8,0.5
      c0.4,0,0.8,0.1,1.1,0.2v1C4.6,1.5,4.3,1.4,4,1.4c-0.4,0-0.7,0.1-0.9,0.3C2.9,1.9,2.8,2.1,2.8,2.4c0,0.3,0.1,0.5,0.3,0.7
      c0.2,0.2,0.5,0.3,0.9,0.3c0.3,0,0.6-0.1,0.9-0.2v0.9C4.6,4.2,4.2,4.2,3.8,4.2z"/>
    
    <!-- "b" in blue -->
    <path fill="#0064D2" d="M7.1,4.2C6.5,4.2,6,4,5.7,3.7C5.3,3.4,5.2,3,5.2,2.4c0-0.6,0.2-1.1,0.5-1.4C6.1,0.7,6.6,0.5,7.2,0.5
      c0.5,0,1,0.2,1.3,0.5c0.3,0.3,0.5,0.8,0.5,1.3c0,0.6-0.2,1.1-0.5,1.4C8.1,4,7.7,4.2,7.1,4.2z M7.2,1.4C6.9,1.4,6.7,1.5,6.6,1.7
      C6.4,1.9,6.4,2.1,6.4,2.4c0,0.6,0.3,0.9,0.8,0.9c0.5,0,0.8-0.3,0.8-0.9C8,1.7,7.7,1.4,7.2,1.4z"/>
    
    <!-- "a" in yellow -->
    <path fill="#F5AF02" d="M11.5,0.6l-0.2,0.8c-0.3-0.1-0.5-0.2-0.8-0.2c-0.4,0-0.7,0.1-0.9,0.4c-0.2,0.3-0.3,0.7-0.3,1.2
      c0,0.5,0.1,0.9,0.3,1.1c0.2,0.2,0.5,0.4,0.9,0.4c0.2,0,0.5-0.1,0.7-0.2l0.2,0.8c-0.3,0.1-0.7,0.2-1.1,0.2c-0.6,0-1.1-0.2-1.5-0.6
      c-0.4-0.4-0.6-0.9-0.6-1.6c0-0.7,0.2-1.3,0.6-1.7c0.4-0.4,1-0.6,1.7-0.6C10.8,0.5,11.2,0.5,11.5,0.6z"/>
    
    <!-- "y" in red -->
    <path fill="#E53238" d="M14.8,4.1h-1.2l-0.8-1.3l-0.8,1.3h-1.1l1.3-2L11,0.6h1.1l0.7,1.2l0.7-1.2h1.1l-1.2,1.6L14.8,4.1z"/>
  </g>
</svg>